<?xml version="1.0" encoding="UTF-8" standalone="no"?>
<!-- Generator: Adobe Illustrator 17.0.0, SVG Export Plug-In . SVG Version: 6.00 Build 0)  -->

<svg
   version="1.1"
   id="Layer_1"
   x="0px"
   y="0px"
   width="175.227px"
   height="16px"
   viewBox="0 0 175.227 16"
   enable-background="new 0 0 175.227 16"
   xml:space="preserve"
   sodipodi:docname="sprite.svg"
   inkscape:version="1.1 (c68e22c387, 2021-05-23)"
   inkscape:export-filename="D:\DevDevDev\Servidor\xampp\htdocs\blog\wp-content\plugins\author-bio-box\assets\images\sprite.png"
   inkscape:export-xdpi="96"
   inkscape:export-ydpi="96"
   xmlns:inkscape="http://www.inkscape.org/namespaces/inkscape"
   xmlns:sodipodi="http://sodipodi.sourceforge.net/DTD/sodipodi-0.dtd"
   xmlns="http://www.w3.org/2000/svg"
   xmlns:svg="http://www.w3.org/2000/svg"
   xmlns:rdf="http://www.w3.org/1999/02/22-rdf-syntax-ns#"
   xmlns:cc="http://creativecommons.org/ns#"
   xmlns:dc="http://purl.org/dc/elements/1.1/"><metadata
     id="metadata67"><rdf:RDF><cc:Work
         rdf:about=""><dc:format>image/svg+xml</dc:format><dc:type
           rdf:resource="http://purl.org/dc/dcmitype/StillImage" /></cc:Work></rdf:RDF></metadata><defs
     id="defs65"><linearGradient
       id="linearGradient5089"
       gradientUnits="userSpaceOnUse"
       x1="275.517"
       y1="4.5700002"
       x2="275.517"
       y2="549.71997"
       gradientTransform="matrix(1,0,0,-1,0,554)"><stop
         offset="0"
         style="stop-color:#E09B3D"
         id="stop4717-4" /><stop
         offset="0.3"
         style="stop-color:#C74C4D"
         id="stop4719-4" /><stop
         offset="0.6"
         style="stop-color:#C21975"
         id="stop4721-3" /><stop
         offset="1"
         style="stop-color:#7024C4"
         id="stop4723-8" /></linearGradient><linearGradient
       id="linearGradient5095"
       gradientUnits="userSpaceOnUse"
       x1="418.31"
       y1="4.5700002"
       x2="418.31"
       y2="549.71997"
       gradientTransform="matrix(1,0,0,-1,0,554)"><stop
         offset="0"
         style="stop-color:#E09B3D"
         id="stop4739-9" /><stop
         offset="0.3"
         style="stop-color:#C74C4D"
         id="stop4741-9" /><stop
         offset="0.6"
         style="stop-color:#C21975"
         id="stop4743-2" /><stop
         offset="1"
         style="stop-color:#7024C4"
         id="stop4745-0" /></linearGradient></defs><sodipodi:namedview
     pagecolor="#ffffff"
     bordercolor="#666666"
     borderopacity="1"
     objecttolerance="10"
     gridtolerance="10"
     guidetolerance="10"
     inkscape:pageopacity="0"
     inkscape:pageshadow="2"
     inkscape:window-width="1920"
     inkscape:window-height="1017"
     id="namedview63"
     showgrid="false"
     showguides="true"
     inkscape:guide-bbox="true"
     inkscape:zoom="0.76672136"
     inkscape:cx="-196.29034"
     inkscape:cy="249.76479"
     inkscape:window-x="-8"
     inkscape:window-y="-8"
     inkscape:window-maximized="1"
     inkscape:current-layer="Layer_1"
     inkscape:pagecheckerboard="0" /><g
     id="g1568"
     transform="matrix(7.9999988,0,0,7.9999988,0,1.8799997e-6)"
     inkscape:export-filename="E:\Users\jay\Documents\Arduino\author-bio-box\assets\images\sprite128.png"
     inkscape:export-xdpi="96"
     inkscape:export-ydpi="96"><g
       id="g5270"
       inkscape:export-filename="E:\Users\Jay\Documents\Arduino\author-bio-box\assets\images\sprite.png"
       inkscape:export-xdpi="96"
       inkscape:export-ydpi="96"><rect
         ry="0"
         y="0"
         x="31.992002"
         height="15.983999"
         width="16.007999"
         id="rect4633-0-9"
         style="fill:#ffffff;fill-opacity:1;stroke:none;stroke-width:0.302091;stroke-miterlimit:4;stroke-dasharray:none;stroke-opacity:1" /><rect
         width="16"
         height="16"
         id="rect8"
         x="0"
         y="0"
         style="fill:#2aa9e0" /><path
         d="M 13.333,4.692 C 12.94,4.866 12.52,4.984 12.076,5.037 12.528,4.766 12.875,4.337 13.039,3.826 12.616,4.077 12.147,4.259 11.649,4.357 11.25,3.932 10.68,3.666 10.051,3.666 8.843,3.666 7.863,4.645 7.863,5.854 7.863,6.025 7.882,6.193 7.92,6.353 6.101,6.262 4.489,5.39 3.409,4.066 3.221,4.389 3.113,4.765 3.113,5.166 3.113,5.925 3.5,6.595 4.087,6.987 3.728,6.977 3.39,6.878 3.095,6.714 v 0.027 c 0,1.061 0.754,1.945 1.755,2.146 -0.184,0.05 -0.377,0.077 -0.577,0.077 -0.141,0 -0.278,-0.014 -0.412,-0.039 0.278,0.87 1.086,1.502 2.044,1.52 -0.749,0.587 -1.693,0.937 -2.718,0.937 -0.176,0 -0.351,-0.011 -0.522,-0.03 0.969,0.62 2.119,0.982 3.355,0.982 4.025,0 6.227,-3.334 6.227,-6.226 0,-0.095 -0.003,-0.189 -0.007,-0.283 0.429,-0.309 0.8,-0.694 1.093,-1.133 z"
         id="path10"
         inkscape:connector-curvature="0"
         style="fill:#ffffff" /><rect
         x="16"
         width="16"
         height="16"
         id="rect12"
         y="0"
         style="fill:#17306b" /><path
         d="m 22.697,6.799 h 1.344 v -0.61 -0.597 -0.1 c 0,-0.576 0.015,-1.464 0.433,-2.014 C 24.915,2.896 25.52,2.5 26.561,2.5 c 1.695,0 2.41,0.242 2.41,0.242 l -0.336,1.991 c 0,0 -0.56,-0.162 -1.083,-0.162 -0.523,0 -0.991,0.187 -0.991,0.709 v 0.212 0.697 0.61 h 2.144 l -0.15,1.944 H 26.561 V 15.5 h -2.52 V 8.743 h -1.344 z"
         id="path14"
         inkscape:connector-curvature="0"
         style="fill:#ffffff" /><rect
         x="48"
         width="16"
         height="16"
         id="rect16"
         y="0"
         style="fill:#007ab9" /><path
         d="M 52.573,15 V 6.903 H 49.882 V 15 Z M 51.228,5.797 c 0.938,0 1.523,-0.621 1.523,-1.399 C 52.733,3.604 52.166,3 51.245,3 c -0.92,0 -1.522,0.605 -1.522,1.399 0,0.778 0.585,1.399 1.487,1.399 h 0.018 z"
         id="path18"
         inkscape:connector-curvature="0"
         style="fill:#ffffff" /><path
         d="m 54.063,15 h 2.69 v -4.521 c 0,-0.243 0.018,-0.484 0.089,-0.657 0.194,-0.484 0.638,-0.984 1.381,-0.984 0.974,0 1.363,0.742 1.363,1.831 V 15 h 2.691 v -4.643 c 0,-2.486 -1.328,-3.644 -3.099,-3.644 -1.452,0 -2.089,0.813 -2.443,1.364 h 0.018 V 6.903 h -2.69 c 0.035,0.76 0,8.097 0,8.097 z"
         id="path20"
         inkscape:connector-curvature="0"
         style="fill:#ffffff" /><rect
         x="64"
         width="16"
         height="16"
         id="rect22"
         y="0"
         style="fill:#666666" /><path
         d="m 67.31,12.658 c 1.297,1.296 3.406,1.296 4.703,0 L 72.77,11.9 71.725,10.855 70.968,11.612 c -0.72,0.72 -1.892,0.72 -2.612,0 -0.72,-0.72 -0.72,-1.893 0,-2.613 L 69.4,7.955 C 70.031,7.324 71.008,7.246 71.725,7.72 L 72.77,6.675 C 71.466,5.634 69.562,5.703 68.355,6.91 L 67.31,7.955 c -1.296,1.297 -1.296,3.406 0,4.703 z"
         id="path24"
         inkscape:connector-curvature="0"
         style="fill:#ffffff" /><path
         d="m 76.689,3.278 c -1.297,-1.296 -3.406,-1.296 -4.703,0 l -0.784,0.784 1.045,1.045 0.784,-0.784 c 0.72,-0.72 1.892,-0.72 2.612,0 0.72,0.72 0.72,1.893 0,2.613 L 74.598,7.981 C 73.968,8.612 72.99,8.69 72.273,8.216 l -1.045,1.045 c 1.304,1.041 3.208,0.972 4.415,-0.235 l 1.045,-1.045 c 1.298,-1.296 1.298,-3.406 10e-4,-4.703 z"
         id="path26"
         inkscape:connector-curvature="0"
         style="fill:#ffffff" /><rect
         x="80"
         width="16"
         height="16"
         id="rect28"
         y="0"
         style="fill:#eaeae9" /><circle
         cx="85.322998"
         cy="7.9860001"
         r="2.102"
         id="circle30"
         style="fill:#3765af" /><circle
         cx="90.286003"
         cy="7.9860001"
         r="2.102"
         id="circle32"
         style="fill:#ec1e82" /><rect
         x="95.25"
         width="16"
         height="16"
         id="rect34"
         y="0"
         style="fill:#4d83ba" /><path
         d="m 103.841,2.594 v 2.654 h 2.491 v 1.649 h -2.491 V 9.59 c 0,0.609 0.032,0.999 0.096,1.172 0.065,0.172 0.184,0.31 0.36,0.414 0.233,0.14 0.498,0.21 0.797,0.21 0.532,0 1.06,-0.174 1.586,-0.519 v 1.656 c -0.448,0.212 -0.855,0.36 -1.219,0.445 -0.363,0.085 -0.757,0.127 -1.18,0.127 -0.48,0 -0.904,-0.06 -1.273,-0.182 -0.369,-0.122 -0.684,-0.294 -0.944,-0.518 -0.26,-0.224 -0.441,-0.463 -0.542,-0.717 -0.1,-0.252 -0.151,-0.618 -0.151,-1.098 V 6.897 H 100.21 V 5.41 c 0.413,-0.133 0.767,-0.326 1.06,-0.576 0.295,-0.251 0.531,-0.551 0.708,-0.902 0.178,-0.351 0.301,-0.797 0.368,-1.339 h 1.495 z"
         id="path36"
         inkscape:connector-curvature="0"
         style="fill:#edf0f3" /><polyline
         points="159.227,16 159.227,0 175.227,0 175.227,16  "
         id="polyline46"
         style="fill:#ca2128" /><path
         d="m 167.227,2.213 c -3.196,0 -5.787,2.591 -5.787,5.787 0,2.37 1.425,4.405 3.464,5.3 -0.016,-0.405 -0.003,-0.89 0.1,-1.329 0.112,-0.47 0.745,-3.154 0.745,-3.154 0,0 -0.185,-0.369 -0.185,-0.915 0,-0.857 0.498,-1.498 1.117,-1.498 0.526,0 0.78,0.395 0.78,0.868 0,0.529 -0.338,1.321 -0.511,2.054 -0.145,0.614 0.308,1.114 0.912,1.114 1.097,0 1.835,-1.408 1.835,-3.077 0,-1.268 -0.854,-2.217 -2.408,-2.217 -1.755,0 -2.849,1.309 -2.849,2.771 0,0.505 0.149,0.86 0.382,1.135 0.107,0.127 0.122,0.177 0.083,0.322 -0.027,0.107 -0.091,0.363 -0.118,0.464 -0.039,0.147 -0.157,0.199 -0.289,0.145 -0.809,-0.33 -1.185,-1.215 -1.185,-2.211 0,-1.644 1.386,-3.615 4.136,-3.615 2.209,0 3.664,1.599 3.664,3.315 0,2.27 -1.263,3.966 -3.123,3.966 -0.625,0 -1.213,-0.338 -1.414,-0.721 0,0 -0.336,1.333 -0.407,1.591 -0.123,0.446 -0.363,0.892 -0.583,1.24 0.52,0.153 1.07,0.237 1.64,0.237 3.196,0 5.787,-2.591 5.787,-5.787 0,-3.194 -2.591,-5.785 -5.786,-5.785 z"
         id="path48"
         inkscape:connector-curvature="0"
         style="fill:#ffffff" /><rect
         x="111.25"
         width="16.000999"
         height="16"
         id="rect56"
         y="0"
         style="fill:#41b2dc" /><path
         d="m 119.822,9.569 c -0.314,0 -0.555,-0.821 -0.913,-2.257 -0.371,-1.485 -0.369,-4.158 -1.914,-3.854 -1.456,0.286 -3.369,2.571 -3.369,2.571 l 0.457,0.6 c 0,0 0.943,-0.742 1.257,-0.371 0.314,0.371 1.513,4.855 1.914,5.682 0.35,0.726 1.313,1.685 2.37,1 1.056,-0.685 4.569,-3.683 5.197,-7.225 0.628,-3.539 -4.227,-2.799 -4.741,0.286 1.285,-0.772 1.971,0.314 1.313,1.542 -0.657,1.226 -1.258,2.026 -1.571,2.026 z"
         id="path58"
         inkscape:connector-curvature="0"
         style="fill:#ffffff" /><g
         transform="matrix(1.0193948,0,0,1.0178665,-1.8383404,-19.262469)"
         id="g4658"><rect
           style="fill:#ffffff;fill-opacity:1;stroke:none;stroke-width:0.296566;stroke-miterlimit:4;stroke-dasharray:none;stroke-opacity:1"
           id="rect4633"
           width="15.703434"
           height="15.703434"
           x="126.63331"
           y="18.940075"
           ry="0" /><g
           id="g4602"
           transform="matrix(0.0257589,0,0,0.0257589,127.87191,20.101188)"><path
             id="path4544"
             d="m 506.703,145.655 c 0,0 -5.297,-37.959 -20.303,-54.731 C 466.979,68.855 444.91,68.855 435.2,67.972 363.697,62.676 256,61.793 256,61.793 v 0 c 0,0 -107.697,0.883 -179.2,6.179 -9.71,0.883 -31.779,1.766 -51.2,22.952 -15.89,16.773 -20.303,54.731 -20.303,54.731 0,0 -5.297,45.021 -5.297,90.042 v 41.49 c 0,45.021 5.297,89.159 5.297,89.159 0,0 5.297,37.959 20.303,54.731 19.421,22.069 45.021,21.186 56.497,23.835 40.606,4.412 173.903,5.295 173.903,5.295 0,0 107.697,0 179.2,-6.179 9.71,-0.883 31.779,-1.766 51.2,-22.952 15.007,-16.772 20.303,-54.731 20.303,-54.731 0,0 5.297,-45.021 5.297,-89.159 v -41.49 c 0,-45.02 -5.297,-90.041 -5.297,-90.041"
             style="fill:#d8362a"
             inkscape:connector-curvature="0" /><polygon
             id="polygon4546"
             points="194.207,166.841 194.207,358.4 361.931,264.828 "
             style="fill:#ffffff" /><g
             id="g4548" /><g
             id="g4550" /><g
             id="g4552" /><g
             id="g4554" /><g
             id="g4556" /><g
             id="g4558" /><g
             id="g4560" /><g
             id="g4562" /><g
             id="g4564" /><g
             id="g4566" /><g
             id="g4568" /><g
             id="g4570" /><g
             id="g4572" /><g
             id="g4574" /><g
             id="g4576" /></g></g><g
         transform="matrix(0.03510851,0,0,0.03510851,32,0)"
         id="g4715"><path
           inkscape:connector-curvature="0"
           style="fill:#dd4b39"
           d="M 0,0 V 455.73 H 455.73 V 0 Z m 265.67,247.037 c -7.793,51.194 -45.961,80.543 -95.376,80.543 -55.531,0 -100.552,-45.021 -100.552,-100.552 0,-55.517 45.021,-100.538 100.552,-100.538 26.862,0 50.399,9.586 67.531,26.226 l -28.857,28.857 c -9.773,-9.846 -23.147,-15.094 -38.674,-15.094 -32.688,0 -59.189,27.874 -59.189,60.548 0,32.703 26.501,59.768 59.189,59.768 27.397,0 48.144,-13.243 54.129,-39.758 h -54.129 v -40.38 h 95.131 c 1.142,6.506 1.72,13.315 1.72,20.37 -10e-4,6.998 -0.507,13.663 -1.475,20.01 z m 120.749,-12.52 h -35.233 v 35.218 H 326.16 v -35.218 h -35.233 v -25.041 h 35.233 v -35.233 h 25.026 v 35.233 h 35.233 z"
           id="path4660" /><g
           id="g4662" /><g
           id="g4664" /><g
           id="g4666" /><g
           id="g4668" /><g
           id="g4670" /><g
           id="g4672" /><g
           id="g4674" /><g
           id="g4676" /><g
           id="g4678" /><g
           id="g4680" /><g
           id="g4682" /><g
           id="g4684" /><g
           id="g4686" /><g
           id="g4688" /><g
           id="g4690" /></g><g
         transform="translate(-15.558568,-42.391716)"
         id="g4952"><rect
           style="fill:#ffffff;fill-opacity:1;stroke:none;stroke-width:0.302091;stroke-miterlimit:4;stroke-dasharray:none;stroke-opacity:1"
           id="rect4633-0"
           width="16.007999"
           height="15.983999"
           x="158.77757"
           y="42.407719"
           ry="0" /><g
           id="g4823"
           transform="matrix(0.02393836,0,0,0.02393836,160.20398,43.806336)"><g
             id="g4750"><linearGradient
               gradientTransform="matrix(1,0,0,-1,0,554)"
               y2="549.71997"
               x2="275.517"
               y1="4.5700002"
               x1="275.517"
               gradientUnits="userSpaceOnUse"
               id="SVGID_1_"><stop
                 id="stop4717"
                 style="stop-color:#E09B3D"
                 offset="0" /><stop
                 id="stop4719"
                 style="stop-color:#C74C4D"
                 offset="0.3" /><stop
                 id="stop4721"
                 style="stop-color:#C21975"
                 offset="0.6" /><stop
                 id="stop4723"
                 style="stop-color:#7024C4"
                 offset="1" /></linearGradient><path
               id="path4726"
               d="M 386.878,0 H 164.156 C 73.64,0 0,73.64 0,164.156 v 222.722 c 0,90.516 73.64,164.156 164.156,164.156 h 222.722 c 90.516,0 164.156,-73.64 164.156,-164.156 V 164.156 C 551.033,73.64 477.393,0 386.878,0 Z M 495.6,386.878 C 495.6,446.923 446.923,495.6 386.878,495.6 H 164.156 C 104.111,495.6 55.434,446.923 55.434,386.878 V 164.156 c 0,-60.046 48.677,-108.722 108.722,-108.722 h 222.722 c 60.045,0 108.722,48.676 108.722,108.722 z"
               style="fill:url(#SVGID_1_)"
               inkscape:connector-curvature="0" /><linearGradient
               gradientTransform="matrix(1,0,0,-1,0,554)"
               y2="549.71997"
               x2="275.517"
               y1="4.5700002"
               x1="275.517"
               gradientUnits="userSpaceOnUse"
               id="SVGID_2_"><stop
                 id="stop4728"
                 style="stop-color:#E09B3D"
                 offset="0" /><stop
                 id="stop4730"
                 style="stop-color:#C74C4D"
                 offset="0.3" /><stop
                 id="stop4732"
                 style="stop-color:#C21975"
                 offset="0.6" /><stop
                 id="stop4734"
                 style="stop-color:#7024C4"
                 offset="1" /></linearGradient><path
               id="path4737"
               d="M 275.517,133 C 196.933,133 133,196.933 133,275.516 c 0,78.583 63.933,142.517 142.517,142.517 78.584,0 142.517,-63.933 142.517,-142.517 C 418.034,196.932 354.101,133 275.517,133 Z m 0,229.6 c -48.095,0 -87.083,-38.988 -87.083,-87.083 0,-48.095 38.989,-87.083 87.083,-87.083 48.095,0 87.083,38.988 87.083,87.083 0,48.094 -38.989,87.083 -87.083,87.083 z"
               style="fill:url(#SVGID_2_)"
               inkscape:connector-curvature="0" /><linearGradient
               gradientTransform="matrix(1,0,0,-1,0,554)"
               y2="549.71997"
               x2="418.31"
               y1="4.5700002"
               x1="418.31"
               gradientUnits="userSpaceOnUse"
               id="SVGID_3_"><stop
                 id="stop4739"
                 style="stop-color:#E09B3D"
                 offset="0" /><stop
                 id="stop4741"
                 style="stop-color:#C74C4D"
                 offset="0.3" /><stop
                 id="stop4743"
                 style="stop-color:#C21975"
                 offset="0.6" /><stop
                 id="stop4745"
                 style="stop-color:#7024C4"
                 offset="1" /></linearGradient><circle
               id="circle4748"
               r="34.150002"
               cy="134.07001"
               cx="418.31"
               style="fill:url(#SVGID_3_)" /></g><g
             id="g4752" /><g
             id="g4754" /><g
             id="g4756" /><g
             id="g4758" /><g
             id="g4760" /><g
             id="g4762" /><g
             id="g4764" /><g
             id="g4766" /><g
             id="g4768" /><g
             id="g4770" /><g
             id="g4772" /><g
             id="g4774" /><g
             id="g4776" /><g
             id="g4778" /><g
             id="g4780" /></g></g></g><rect
       style="fill:#ffffff;stroke:none;stroke-width:4.22414"
       id="rect1122"
       width="16"
       height="16"
       x="175"
       y="0"
       inkscape:export-filename="E:\Users\Jay\Documents\Arduino\author-bio-box\assets\images\sprite.png"
       inkscape:export-xdpi="96"
       inkscape:export-ydpi="96" /><rect
       style="fill:#ffffff;stroke:none;stroke-width:4.22414"
       id="rect1122-6"
       width="16"
       height="16"
       x="207"
       y="0"
       inkscape:export-filename="E:\Users\Jay\Documents\Arduino\author-bio-box\assets\images\sprite.png"
       inkscape:export-xdpi="96"
       inkscape:export-ydpi="96" /><rect
       style="fill:#ffffff;stroke:none;stroke-width:4.22414"
       id="rect1122-6-6"
       width="16"
       height="16"
       x="191"
       y="0"
       inkscape:export-filename="E:\Users\Jay\Documents\Arduino\author-bio-box\assets\images\sprite.png"
       inkscape:export-xdpi="96"
       inkscape:export-ydpi="96" /><g
       stroke-width="32"
       id="g8"
       transform="matrix(0.02343677,0,0,0.02343677,142.40048,21.350897)"
       inkscape:export-filename="E:\Users\Jay\Documents\Arduino\author-bio-box\assets\images\sprite.png"
       inkscape:export-xdpi="96"
       inkscape:export-ydpi="96"><path
         d="m 2799,-911 v 341.344 l 256,-170.656"
         fill="#211f20"
         id="path2" /><path
         d="m 2799,-569.656 v 341.344 l 256,-170.656"
         fill="#737373"
         id="path4" /><path
         d="M 3055,-740.344 V -399 l 256,-170.656"
         fill="#f1680d"
         id="path6" /></g><g
       id="photos"
       transform="matrix(0.40884983,0,0,0.40884983,191,-0.0016548)"
       style="fill:none;fill-rule:nonzero;stroke:none;stroke-width:1"
       inkscape:export-filename="E:\Users\Jay\Documents\Arduino\author-bio-box\assets\images\sprite.png"
       inkscape:export-xdpi="96"
       inkscape:export-ydpi="96"><g
         id="Group-3"><g
           id="Group-2"><path
             d="m 17.470167,18.705316 c 0.04048,0.282647 0.06881,0.568667 0.06881,0.862108 0,3.339151 -2.732032,6.071183 -6.071183,6.071183 H 6.0711833 C 2.7320325,25.638607 0,22.906575 0,19.567424 c 0,-3.014005 2.2281243,-5.526126 5.117333,-5.987536 0,0 6.745e-4,6.74e-4 6.745e-4,6.74e-4 0,-6.74e-4 -6.745e-4,-0.0013 -6.745e-4,-0.0013 0.311654,-0.04992 0.6287047,-0.08297 0.9538503,-0.08297 h 5.3966077 c 3.04571,0 5.579417,2.275344 6.002376,5.209075 z"
             id="Combined-Shape"
             inkscape:connector-curvature="0"
             style="fill:#bf3f8a" /><path
             d="M 25.558333,5.1132855 C 25.092875,2.2281243 22.582778,0.00404746 19.571471,0.00404746 c -3.011307,0 -5.521404,2.22407684 -5.986861,5.10923804 0.258363,0.186183 0.507956,0.3885557 0.74001,0.6206099 l 3.816076,3.816076 c 0.668504,0.6685046 1.141382,1.4597826 1.430775,2.3009786 0.443871,1.28844 0.443871,2.695605 0,3.984045 -0.199674,0.578786 -0.488393,1.131264 -0.86683,1.638545 0.283997,0.04115 0.572041,0.07016 0.86683,0.07016 0.29479,0 0.582834,-0.02833 0.86683,-0.07016 0.626681,-0.09107 1.221657,-0.277251 1.772111,-0.545732 1.22503,-0.596999 2.22003,-1.591999 2.817029,-2.817029 0.389905,-0.800047 0.615214,-1.693185 0.615214,-2.638941 V 6.0752308 c 0,-0.3278439 -0.03373,-0.6475929 -0.08432,-0.9619453 z"
             id="Shape"
             inkscape:connector-curvature="0"
             style="fill:#ed8611" /><path
             d="m 24.818323,33.400278 -3.816076,-3.816076 c -0.668505,-0.668505 -1.141383,-1.459783 -1.430776,-2.300979 -0.443871,-1.28844 -0.443871,-2.695605 0,-3.984045 0.199675,-0.578786 0.488393,-1.131264 0.86683,-1.638545 -0.283996,-0.04115 -0.57204,-0.07016 -0.86683,-0.07016 -0.294789,0 -0.582833,0.02833 -0.86683,0.07016 -0.626681,0.09107 -1.221657,0.277251 -1.772111,0.545732 -1.22503,0.597 -2.220029,1.591999 -2.817029,2.817029 -0.389905,0.800047 -0.615213,1.693186 -0.615213,2.638941 v 5.396607 c 0,0.327844 0.03373,0.647593 0.08432,0.961946 0.465457,2.885161 2.975554,5.109238 5.986861,5.109238 3.011307,0 5.521404,-2.224077 5.986862,-5.109238 -0.258363,-0.186858 -0.507956,-0.389231 -0.74001,-0.62061 z"
             id="path11"
             inkscape:connector-curvature="0"
             style="fill:#2e86dd" /><path
             d="m 34.024935,13.580562 c -0.186183,0.258363 -0.388556,0.507956 -0.62061,0.74001 l -3.816076,3.816076 c -0.668505,0.668505 -1.459782,1.140708 -2.300978,1.430776 -1.28844,0.443871 -2.695606,0.443871 -3.984046,0 -0.578786,-0.199675 -1.131264,-0.488393 -1.638545,-0.86683 -0.04115,0.283996 -0.06948,0.57204 -0.06948,0.86683 0,0.294789 0.02833,0.582833 0.06948,0.86683 0.09107,0.626681 0.277251,1.221657 0.545732,1.772111 0.597,1.22503 1.592,2.220029 2.817029,2.817029 0.800047,0.389905 1.693186,0.615213 2.638941,0.615213 h 5.396608 c 0.327844,0 0.647593,-0.03373 0.961945,-0.08432 2.885161,-0.465457 5.109238,-2.975554 5.109238,-5.986861 0,-3.011307 -2.224077,-5.522079 -5.109238,-5.986862 z"
             id="path13"
             inkscape:connector-curvature="0"
             style="fill:#9ee85d" /><path
             d="M 33.404325,5.7338954 C 31.275364,3.6049337 27.927443,3.402561 25.558333,5.1132855 c 0.05059,0.3143524 0.08432,0.6341014 0.08432,0.9619453 v 5.3966072 c 0,0.945756 -0.225309,1.838894 -0.615214,2.638941 -0.596999,1.22503 -1.591999,2.22003 -2.817029,2.817029 -0.550454,0.268481 -1.14543,0.454664 -1.772111,0.545732 0.172017,0.230031 0.355502,0.45399 0.563946,0.662434 0.208444,0.208444 0.432403,0.391928 0.662433,0.563945 0.507281,0.378437 1.059759,0.66783 1.638545,0.86683 1.28844,0.443871 2.695606,0.443871 3.984046,0 0.841196,-0.290067 1.632473,-0.762271 2.300978,-1.430775 l 3.816076,-3.816076 c 0.232054,-0.232054 0.434427,-0.481648 0.62061,-0.74001 1.711399,-2.369111 1.508352,-5.7163564 -0.62061,-7.8459926 z"
             id="path15"
             inkscape:connector-curvature="0"
             style="fill:#f0c51a" /><path
             d="m 34.024935,25.554285 c -0.314352,0.05059 -0.634101,0.08432 -0.961945,0.08432 h -5.396608 c -0.945755,0 -1.838894,-0.225308 -2.638941,-0.615213 -1.225029,-0.597 -2.220029,-1.591999 -2.817029,-2.817029 -0.268481,-0.550454 -0.454664,-1.14543 -0.545732,-1.772111 -0.23003,0.172017 -0.453989,0.355501 -0.662433,0.563945 -0.208444,0.208444 -0.391929,0.432404 -0.563946,0.662434 -0.378437,0.507281 -0.66783,1.059759 -0.86683,1.638545 -0.443871,1.28844 -0.443871,2.695605 0,3.984045 0.290068,0.841196 0.762271,1.632474 1.430776,2.300979 l 3.816076,3.816076 c 0.232054,0.232054 0.481647,0.434427 0.74001,0.62061 2.36911,1.710724 5.717031,1.508351 7.845992,-0.62061 2.128962,-2.128962 2.332009,-5.476882 0.62061,-7.845993 z"
             id="path17"
             inkscape:connector-curvature="0"
             style="fill:#49b85f" /><path
             d="M 19.571471,11.851624 C 19.281404,11.010428 18.8092,10.219151 18.140696,9.550646 L 14.32462,5.7338954 C 14.092566,5.5018412 13.842973,5.2994685 13.58461,5.1132855 11.215499,3.402561 7.867579,3.6049337 5.7386174,5.7338954 3.6096558,7.862857 3.407283,11.209428 5.117333,13.578539 c 0.311654,-0.04924 0.6287047,-0.0823 0.9538503,-0.0823 h 5.3966077 c 3.04571,0 5.579417,2.275344 6.002376,5.209075 0.0027,-0.002 0.0054,-0.0034 0.0081,-0.0054 0.230031,-0.172017 0.45399,-0.355501 0.662434,-0.563945 0.208444,-0.208444 0.391928,-0.432403 0.563945,-0.662434 0.378437,-0.507281 0.66783,-1.059759 0.86683,-1.638545 0.443871,-1.28844 0.443871,-2.695605 0,-3.983371 z"
             id="path19"
             inkscape:connector-curvature="0"
             style="fill:#ed5b47" /><path
             d="m 18.140696,20.998199 c -0.208444,-0.208444 -0.432403,-0.391928 -0.662434,-0.563945 -0.507281,-0.378437 -1.059759,-0.66783 -1.638545,-0.86683 -1.28844,-0.443871 -2.695605,-0.443871 -3.984045,0 -0.841196,0.290067 -1.632474,0.762271 -2.3009786,1.430775 l -3.816076,3.816076 c -0.2320541,0.232054 -0.4344269,0.481648 -0.6206099,0.74001 -1.7107245,2.369111 -1.5083517,5.717031 0.6206099,7.845993 2.1289616,2.128961 5.4768816,2.331334 7.8459926,0.62061 -0.05059,-0.314353 -0.08432,-0.634102 -0.08432,-0.961946 v -5.396607 c 0,-0.945755 0.225308,-1.838894 0.615213,-2.638941 0.597,-1.22503 1.591999,-2.220029 2.817029,-2.817029 0.550454,-0.268481 1.14543,-0.454664 1.772111,-0.545732 -0.172017,-0.23003 -0.355501,-0.45399 -0.563945,-0.662434 z"
             id="path21"
             inkscape:connector-curvature="0"
             style="fill:#8d59a8" /></g><path
           d="m 18.383795,24.289386 h 3.427493 c 3.228836,0 5.846325,-2.568194 5.846325,-5.736222 0,-3.168028 -2.617489,-5.736221 -5.846325,-5.736221 h -4.94689 c -1.86279,0 -3.372879,1.48165 -3.372879,3.309358 v 12.880464 z"
           id="Path-6-Copy-2"
           inkscape:connector-curvature="0"
           style="fill:#ffffff" /></g></g><g
       id="g849"
       transform="matrix(0.06896262,0,0,0.06896262,175.5,0)"
       inkscape:export-filename="E:\Users\Jay\Documents\Arduino\author-bio-box\assets\images\sprite.png"
       inkscape:export-xdpi="96"
       inkscape:export-ydpi="96"><path
         fill="#2b90d9"
         d="m 211.80734,139.0875 c -3.18125,16.36625 -28.4925,34.2775 -57.5625,37.74875 -15.15875,1.80875 -30.08375,3.47125 -45.99875,2.74125 -26.0275,-1.1925 -46.565,-6.2125 -46.565,-6.2125 0,2.53375 0.15625,4.94625 0.46875,7.2025 3.38375,25.68625 25.47,27.225 46.39125,27.9425 21.11625,0.7225 39.91875,-5.20625 39.91875,-5.20625 l 0.8675,19.09 c 0,0 -14.77,7.93125 -41.08125,9.39 -14.50875,0.7975 -32.52375,-0.365 -53.50625,-5.91875 C 9.23234,213.82 1.40609,165.31125 0.20859,116.09125 -0.15641,101.4775 0.06859,87.6975 0.06859,76.1725 0.06859,25.8425 33.04484,11.09 33.04484,11.09 49.67234,3.45375 78.20359,0.2425 107.86484,0 h 0.72875 c 29.66125,0.2425 58.21125,3.45375 74.8375,11.09 0,0 32.975,14.7525 32.975,65.0825 0,0 0.41375,37.13375 -4.59875,62.915"
         id="path2-0" /><path
         fill="#ffffff"
         d="m 177.50984,80.077 v 60.94125 h -24.14375 v -59.15 c 0,-12.46875 -5.24625,-18.7975 -15.74,-18.7975 -11.6025,0 -17.4175,7.5075 -17.4175,22.3525 V 117.7995 H 96.20734 V 85.42325 c 0,-14.845 -5.81625,-22.3525 -17.41875,-22.3525 -10.49375,0 -15.74,6.32875 -15.74,18.7975 v 59.15 H 38.90484 V 80.077 c 0,-12.455 3.17125,-22.3525 9.54125,-29.675 6.56875,-7.3225 15.17125,-11.07625 25.85,-11.07625 12.355,0 21.71125,4.74875 27.8975,14.2475 l 6.01375,10.08125 6.015,-10.08125 c 6.185,-9.49875 15.54125,-14.2475 27.8975,-14.2475 10.6775,0 19.28,3.75375 25.85,11.07625 6.36875,7.3225 9.54,17.22 9.54,29.675"
         id="path4-2" /></g></g></svg>
