<?xml version="1.0" encoding="utf-8"?>
<!-- Generator: Adobe Illustrator 16.0.0, SVG Export Plug-In . SVG Version: 6.00 Build 0)  -->
<!DOCTYPE svg PUBLIC "-//W3C//DTD SVG 1.0//EN" "http://www.w3.org/TR/2001/REC-SVG-20010904/DTD/svg10.dtd">
<svg version="1.0" id="Layer_1" xmlns="http://www.w3.org/2000/svg" xmlns:xlink="http://www.w3.org/1999/xlink" x="0px" y="0px"
	 width="64px" height="16px" viewBox="0 0 64 16" enable-background="new 0 0 64 16" xml:space="preserve">
<g id="Facebook">
	<rect fill="#17306B" width="16" height="16"/>
	<path fill="#FFFFFF" d="M6.938,6.468h1.241V5.906V5.354V5.262c0-0.532,0.014-1.353,0.4-1.859C8.986,2.866,9.544,2.5,10.505,2.5
		c1.564,0,2.225,0.224,2.225,0.224l-0.311,1.837c0,0-0.517-0.149-1-0.149c-0.482,0-0.915,0.173-0.915,0.654v0.197v0.644v0.563h1.979
		l-0.139,1.794h-1.841V14.5H8.179V8.263H6.938V6.468L6.938,6.468z"/>
</g>
<g id="Google_Plus">
	<rect x="32" fill="#C30907" width="16" height="16"/>
	<g>
		<path fill="#FFFFFF" d="M38.273,2.236c0.141,0.087,0.3,0.215,0.477,0.383c0.168,0.175,0.334,0.391,0.497,0.647
			c0.155,0.24,0.293,0.525,0.412,0.854c0.099,0.328,0.147,0.711,0.147,1.15c-0.014,0.803-0.189,1.447-0.531,1.929
			c-0.166,0.233-0.344,0.449-0.531,0.646c-0.207,0.197-0.43,0.398-0.663,0.602c-0.133,0.139-0.258,0.297-0.371,0.471
			c-0.134,0.184-0.201,0.395-0.201,0.637c0,0.234,0.068,0.428,0.207,0.582c0.116,0.145,0.229,0.272,0.341,0.383l0.762,0.623
			c0.474,0.389,0.89,0.814,1.246,1.282c0.336,0.476,0.512,1.097,0.524,1.863c0,1.088-0.479,2.052-1.44,2.892
			c-0.998,0.869-2.437,1.318-4.313,1.348c-1.573-0.014-2.748-0.35-3.524-1.006c-0.783-0.61-1.175-1.346-1.175-2.196
			c0-0.416,0.128-0.88,0.382-1.392c0.247-0.51,0.694-0.957,1.342-1.345c0.729-0.416,1.494-0.692,2.292-0.831
			c0.793-0.117,1.453-0.182,1.977-0.197c-0.162-0.213-0.307-0.439-0.434-0.684c-0.147-0.234-0.221-0.518-0.221-0.848
			c0-0.199,0.026-0.364,0.084-0.496c0.049-0.141,0.094-0.268,0.137-0.385c-0.256,0.029-0.496,0.043-0.723,0.043
			c-1.195-0.017-2.106-0.393-2.735-1.128c-0.656-0.686-0.985-1.487-0.985-2.4c0-1.103,0.465-2.103,1.396-3.001
			c0.639-0.526,1.303-0.869,1.99-1.03c0.682-0.138,1.319-0.208,1.916-0.208h4.492l-1.388,0.811L38.273,2.236L38.273,2.236z
			 M39.141,15.167c0-0.569-0.187-1.067-0.558-1.491c-0.394-0.4-1.009-0.895-1.847-1.479c-0.145-0.016-0.312-0.022-0.502-0.022
			c-0.115-0.014-0.408,0-0.881,0.044c-0.465,0.066-0.94,0.172-1.427,0.318c-0.114,0.043-0.274,0.109-0.481,0.197
			c-0.207,0.095-0.418,0.229-0.633,0.404c-0.209,0.184-0.383,0.409-0.525,0.68c-0.166,0.285-0.248,0.629-0.248,1.029
			c0,0.791,0.357,1.438,1.072,1.95c0.68,0.513,1.609,0.772,2.789,0.789c1.06-0.017,1.867-0.249,2.426-0.7
			C38.868,16.441,39.141,15.867,39.141,15.167z M36.009,8.582c0.593-0.021,1.084-0.234,1.479-0.637
			c0.188-0.286,0.312-0.578,0.367-0.878c0.033-0.3,0.049-0.553,0.049-0.757c0-0.886-0.229-1.779-0.68-2.679
			c-0.213-0.432-0.492-0.784-0.838-1.054c-0.355-0.256-0.763-0.392-1.223-0.406c-0.607,0.014-1.115,0.259-1.52,0.735
			c-0.34,0.498-0.504,1.054-0.487,1.668c0,0.813,0.235,1.658,0.713,2.536c0.229,0.411,0.526,0.758,0.892,1.044
			C35.125,8.439,35.541,8.582,36.009,8.582z"/>
		<polygon id="_x3C_Path_x3E_" fill="#FFFFFF" points="47.132,3.879 44.775,3.879 44.775,1.522 43.633,1.522 43.633,3.879 
			41.275,3.879 41.275,5.02 43.633,5.02 43.633,7.378 44.775,7.378 44.775,5.02 47.132,5.02 		"/>
	</g>
</g>
<g id="Twitter">
	<rect x="16" fill="#2AA9E0" width="16" height="16"/>
	<path fill="#FFFFFF" d="M29.333,4.691c-0.393,0.174-0.813,0.292-1.257,0.345c0.452-0.271,0.799-0.7,0.963-1.211
		c-0.423,0.251-0.892,0.433-1.39,0.531c-0.399-0.425-0.969-0.691-1.598-0.691c-1.208,0-2.188,0.979-2.188,2.188
		c0,0.171,0.019,0.339,0.057,0.499c-1.819-0.091-3.431-0.963-4.511-2.287c-0.188,0.323-0.296,0.699-0.296,1.1
		c0,0.759,0.387,1.429,0.974,1.821c-0.359-0.01-0.697-0.109-0.992-0.273c0,0.009,0,0.018,0,0.027c0,1.061,0.754,1.944,1.755,2.146
		c-0.184,0.051-0.377,0.077-0.577,0.077c-0.141,0-0.278-0.014-0.412-0.039c0.278,0.87,1.086,1.503,2.044,1.521
		c-0.749,0.586-1.693,0.938-2.718,0.938c-0.176,0-0.351-0.011-0.522-0.029c0.969,0.621,2.119,0.981,3.355,0.981
		c4.025,0,6.227-3.334,6.227-6.226c0-0.095-0.003-0.189-0.007-0.283C28.669,5.515,29.04,5.13,29.333,4.691z"/>
</g>
<g id="LinkedIn">
	<rect x="48" fill="#007AB9" width="16" height="16"/>
	<g>
		<path fill="#FFFFFF" d="M52.858,14.5V7.078h-2.467V14.5H52.858L52.858,14.5z M51.626,6.064c0.86,0,1.396-0.569,1.396-1.283
			C53.005,4.054,52.485,3.5,51.642,3.5s-1.396,0.555-1.396,1.282c0,0.713,0.537,1.282,1.363,1.282L51.626,6.064L51.626,6.064z"/>
		<path fill="#FFFFFF" d="M54.224,14.5h2.467v-4.145c0-0.223,0.017-0.442,0.081-0.602c0.179-0.443,0.586-0.901,1.266-0.901
			c0.895,0,1.25,0.68,1.25,1.679V14.5h2.467v-4.256c0-2.279-1.217-3.342-2.842-3.342c-1.329,0-1.915,0.746-2.239,1.251h0.018V7.078
			h-2.467C54.256,7.774,54.224,14.5,54.224,14.5L54.224,14.5z"/>
	</g>
</g>
</svg>
