<?xml version="1.0" encoding="utf-8"?>
<!-- Generator: Adobe Illustrator 17.0.0, SVG Export Plug-In . SVG Version: 6.00 Build 0)  -->
<!DOCTYPE svg PUBLIC "-//W3C//DTD SVG 1.1//EN" "http://www.w3.org/Graphics/SVG/1.1/DTD/svg11.dtd">
<svg version="1.1" id="Layer_1" xmlns="http://www.w3.org/2000/svg" xmlns:xlink="http://www.w3.org/1999/xlink" x="0px" y="0px"
	 width="175.227px" height="16px" viewBox="0 0 175.227 16" enable-background="new 0 0 175.227 16" xml:space="preserve">
<g>
	<rect x="32" fill="#C30907" width="16" height="16"/>
	<path fill="#FFFFFF" d="M38.273,2.236c0.141,0.087,0.3,0.215,0.477,0.383c0.168,0.175,0.334,0.391,0.497,0.647
		c0.155,0.24,0.293,0.525,0.412,0.854c0.099,0.328,0.148,0.711,0.148,1.15c-0.013,0.803-0.19,1.447-0.531,1.929
		c-0.167,0.233-0.345,0.449-0.532,0.646c-0.207,0.197-0.429,0.398-0.663,0.602c-0.133,0.139-0.258,0.297-0.371,0.471
		c-0.134,0.183-0.201,0.395-0.201,0.637c0,0.234,0.068,0.427,0.207,0.581c0.116,0.146,0.229,0.273,0.34,0.383l0.762,0.624
		c0.473,0.388,0.889,0.814,1.246,1.282c0.336,0.475,0.511,1.096,0.525,1.863c0,1.088-0.48,2.052-1.441,2.892
		c-0.997,0.869-2.436,1.318-4.314,1.348c-1.574-0.015-2.748-0.351-3.524-1.006c-0.783-0.612-1.175-1.346-1.175-2.198
		c0-0.416,0.128-0.879,0.382-1.39c0.247-0.51,0.694-0.958,1.342-1.345c0.729-0.416,1.492-0.692,2.292-0.831
		c0.793-0.118,1.452-0.182,1.976-0.197c-0.162-0.213-0.306-0.441-0.433-0.684c-0.148-0.234-0.222-0.517-0.222-0.848
		c0-0.199,0.028-0.364,0.084-0.496c0.049-0.14,0.095-0.268,0.137-0.385c-0.255,0.029-0.496,0.043-0.722,0.043
		c-1.196-0.015-2.107-0.391-2.734-1.128c-0.656-0.686-0.985-1.487-0.985-2.4c0-1.103,0.465-2.103,1.395-3.001
		c0.638-0.526,1.302-0.869,1.99-1.03c0.681-0.138,1.32-0.208,1.916-0.208h4.493l-1.388,0.811h-1.385V2.236z M39.141,15.167
		c0-0.57-0.187-1.067-0.558-1.491c-0.394-0.401-1.009-0.895-1.846-1.479c-0.144-0.015-0.311-0.022-0.503-0.022
		c-0.115-0.014-0.408,0-0.88,0.044c-0.465,0.066-0.941,0.171-1.426,0.318c-0.115,0.043-0.276,0.11-0.483,0.197
		c-0.207,0.095-0.418,0.23-0.633,0.405c-0.208,0.183-0.383,0.41-0.525,0.679c-0.166,0.286-0.248,0.629-0.248,1.03
		c0,0.79,0.357,1.439,1.073,1.951c0.679,0.512,1.609,0.774,2.789,0.789c1.059-0.015,1.867-0.249,2.425-0.701
		C38.868,16.441,39.141,15.867,39.141,15.167z M36.009,8.582c0.592-0.021,1.084-0.234,1.479-0.637
		c0.19-0.286,0.312-0.578,0.367-0.878c0.033-0.3,0.049-0.553,0.049-0.757c0-0.886-0.227-1.779-0.679-2.679
		c-0.213-0.432-0.493-0.784-0.839-1.054c-0.355-0.256-0.761-0.392-1.221-0.406c-0.609,0.014-1.115,0.259-1.519,0.735
		c-0.34,0.498-0.504,1.054-0.488,1.668c0,0.813,0.237,1.658,0.713,2.536c0.23,0.411,0.527,0.758,0.891,1.044
		C35.125,8.439,35.541,8.582,36.009,8.582z"/>
	<polygon fill="#FFFFFF" points="47.132,3.879 44.775,3.879 44.775,1.522 43.633,1.522 43.633,3.879 41.275,3.879 41.275,5.02 
		43.633,5.02 43.633,7.378 44.775,7.378 44.775,5.02 47.132,5.02 	"/>
	<rect fill="#2AA9E0" width="16" height="16"/>
	<path fill="#FFFFFF" d="M13.333,4.692c-0.393,0.174-0.813,0.292-1.257,0.345c0.452-0.271,0.799-0.7,0.963-1.211
		c-0.423,0.251-0.892,0.433-1.39,0.531c-0.399-0.425-0.969-0.691-1.598-0.691c-1.208,0-2.188,0.979-2.188,2.188
		c0,0.171,0.019,0.339,0.057,0.499C6.101,6.262,4.489,5.39,3.409,4.066c-0.188,0.323-0.296,0.699-0.296,1.1
		c0,0.759,0.387,1.429,0.974,1.821C3.728,6.977,3.39,6.878,3.095,6.714v0.027c0,1.061,0.754,1.945,1.755,2.146
		c-0.184,0.05-0.377,0.077-0.577,0.077c-0.141,0-0.278-0.014-0.412-0.039c0.278,0.87,1.086,1.502,2.044,1.52
		c-0.749,0.587-1.693,0.937-2.718,0.937c-0.176,0-0.351-0.011-0.522-0.03c0.969,0.62,2.119,0.982,3.355,0.982
		c4.025,0,6.227-3.334,6.227-6.226c0-0.095-0.003-0.189-0.007-0.283C12.669,5.516,13.04,5.131,13.333,4.692z"/>
	<rect x="16" fill="#17306B" width="16" height="16"/>
	<path fill="#FFFFFF" d="M22.697,6.799h1.344v-0.61V5.592v-0.1c0-0.576,0.015-1.464,0.433-2.014C24.915,2.896,25.52,2.5,26.561,2.5
		c1.695,0,2.41,0.242,2.41,0.242l-0.336,1.991c0,0-0.56-0.162-1.083-0.162s-0.991,0.187-0.991,0.709v0.212v0.697v0.61h2.144
		l-0.15,1.944h-1.994V15.5h-2.52V8.743h-1.344V6.799z"/>
	<rect x="48" fill="#007AB9" width="16" height="16"/>
	<path fill="#FFFFFF" d="M52.573,15V6.903h-2.691V15H52.573z M51.228,5.797c0.938,0,1.523-0.621,1.523-1.399
		C52.733,3.604,52.166,3,51.245,3c-0.92,0-1.522,0.605-1.522,1.399c0,0.778,0.585,1.399,1.487,1.399h0.018V5.797z"/>
	<path fill="#FFFFFF" d="M54.063,15h2.69v-4.521c0-0.243,0.018-0.484,0.089-0.657c0.194-0.484,0.638-0.984,1.381-0.984
		c0.974,0,1.363,0.742,1.363,1.831V15h2.691v-4.643c0-2.486-1.328-3.644-3.099-3.644c-1.452,0-2.089,0.813-2.443,1.364h0.018V6.903
		h-2.69C54.098,7.663,54.063,15,54.063,15z"/>
	<rect x="64" fill="#666666" width="16" height="16"/>
	<path fill="#FFFFFF" d="M67.31,12.658c1.297,1.296,3.406,1.296,4.703,0L72.77,11.9l-1.045-1.045l-0.757,0.757
		c-0.72,0.72-1.892,0.72-2.612,0s-0.72-1.893,0-2.613L69.4,7.955c0.631-0.631,1.608-0.709,2.325-0.235l1.045-1.045
		c-1.304-1.041-3.208-0.972-4.415,0.235L67.31,7.955C66.014,9.252,66.014,11.361,67.31,12.658z"/>
	<path fill="#FFFFFF" d="M76.689,3.278c-1.297-1.296-3.406-1.296-4.703,0l-0.784,0.784l1.045,1.045l0.784-0.784
		c0.72-0.72,1.892-0.72,2.612,0s0.72,1.893,0,2.613l-1.045,1.045c-0.63,0.631-1.608,0.709-2.325,0.235l-1.045,1.045
		c1.304,1.041,3.208,0.972,4.415-0.235l1.045-1.045C77.986,6.685,77.986,4.575,76.689,3.278z"/>
	<rect x="80" fill="#EAEAE9" width="16" height="16"/>
	<circle fill="#3765AF" cx="85.323" cy="7.986" r="2.102"/>
	<circle fill="#EC1E82" cx="90.286" cy="7.986" r="2.102"/>
	<rect x="95.25" fill="#4D83BA" width="16" height="16"/>
	<path fill="#EDF0F3" d="M103.841,2.594v2.654h2.491v1.649h-2.491V9.59c0,0.609,0.032,0.999,0.096,1.172
		c0.065,0.172,0.184,0.31,0.36,0.414c0.233,0.14,0.498,0.21,0.797,0.21c0.532,0,1.06-0.174,1.586-0.519v1.656
		c-0.448,0.212-0.855,0.36-1.219,0.445c-0.363,0.085-0.757,0.127-1.18,0.127c-0.48,0-0.904-0.06-1.273-0.182
		s-0.684-0.294-0.944-0.518s-0.441-0.463-0.542-0.717c-0.1-0.252-0.151-0.618-0.151-1.098V6.897h-1.161V5.41
		c0.413-0.133,0.767-0.326,1.06-0.576c0.295-0.251,0.531-0.551,0.708-0.902c0.178-0.351,0.301-0.797,0.368-1.339h1.495V2.594z"/>
	<polyline fill="#CD332C" points="127.243,16 127.243,0 143.243,0 143.243,16 	"/>
	<path fill="#FFFFFF" d="M134.129,1.563H133.4l-0.492,1.89l-0.511-1.89h-0.759c0.152,0.446,0.31,0.894,0.462,1.341
		c0.231,0.671,0.375,1.177,0.44,1.523v1.949h0.721V4.427L134.129,1.563z M136.055,5.215V3.958c0-0.383-0.066-0.663-0.202-0.845
		c-0.18-0.245-0.433-0.368-0.758-0.368c-0.324,0-0.577,0.123-0.757,0.368c-0.138,0.182-0.203,0.462-0.203,0.845v1.256
		c0,0.381,0.065,0.664,0.203,0.844c0.18,0.244,0.433,0.367,0.757,0.367c0.326,0,0.578-0.123,0.758-0.367
		C135.989,5.878,136.055,5.596,136.055,5.215z M135.405,5.337c0,0.332-0.1,0.498-0.31,0.498s-0.31-0.166-0.31-0.498V3.828
		c0-0.332,0.101-0.497,0.31-0.497c0.21,0,0.31,0.165,0.31,0.497V5.337z M138.458,6.376V2.79h-0.65v2.741
		c-0.144,0.203-0.281,0.304-0.411,0.304c-0.087,0-0.138-0.051-0.152-0.152c-0.008-0.021-0.008-0.1-0.008-0.253V2.79h-0.648v2.836
		c0,0.253,0.022,0.425,0.058,0.533c0.065,0.182,0.209,0.267,0.418,0.267c0.237,0,0.484-0.144,0.743-0.441v0.391H138.458z"/>
	<path fill="#FFFFFF" d="M140.563,10.729c0,0.83-0.001,1.71-0.187,2.515c-0.13,0.566-0.593,0.983-1.15,1.045
		c-1.32,0.147-2.655,0.148-3.985,0.147c-1.33,0.001-2.665,0-3.985-0.147c-0.557-0.063-1.02-0.48-1.15-1.045
		c-0.185-0.806-0.185-1.686-0.185-2.515c0-0.83,0.002-1.709,0.187-2.516c0.13-0.565,0.593-0.983,1.15-1.045
		c1.32-0.148,2.655-0.148,3.985-0.148c1.329,0,2.665,0,3.985,0.148c0.557,0.062,1.02,0.48,1.15,1.045
		C140.564,9.019,140.563,9.898,140.563,10.729z"/>
	<path fill="#CD332C" d="M132.957,8.938V8.267h-2.243v0.671h0.757v4.092h0.715V8.938H132.957z M134.257,13.031v-0.387
		c-0.255,0.293-0.498,0.436-0.735,0.436c-0.207,0-0.35-0.084-0.414-0.264c-0.035-0.108-0.057-0.277-0.057-0.528V9.482h0.643v2.613
		c0,0.15,0,0.229,0.006,0.25c0.016,0.1,0.064,0.15,0.15,0.15c0.129,0,0.264-0.1,0.407-0.301V9.482h0.644v3.549H134.257z
		 M136.7,12.017c0,0.321-0.094,0.478-0.28,0.478c-0.106,0-0.213-0.051-0.321-0.158v-2.164c0.108-0.106,0.215-0.156,0.321-0.156
		c0.185,0,0.28,0.165,0.28,0.484V12.017z M137.343,11.966v-1.414c0-0.336-0.022-0.571-0.065-0.714c-0.086-0.266-0.258-0.4-0.514-0.4
		c-0.236,0-0.456,0.13-0.664,0.385V8.267h-0.643v4.763h0.643v-0.344c0.215,0.266,0.436,0.393,0.664,0.393
		c0.256,0,0.428-0.135,0.514-0.399C137.321,12.531,137.343,12.294,137.343,11.966z M139.127,10.838h-0.643V10.51
		c0-0.328,0.108-0.493,0.323-0.493c0.212,0,0.32,0.165,0.32,0.493V10.838z M139.771,11.895v-0.094h-0.657
		c0,0.258-0.008,0.4-0.014,0.435c-0.037,0.172-0.13,0.258-0.288,0.258c-0.221,0-0.328-0.164-0.328-0.493v-0.629h1.286v-0.735
		c0-0.38-0.065-0.657-0.199-0.836c-0.18-0.243-0.436-0.364-0.759-0.364c-0.328,0-0.585,0.121-0.77,0.364
		c-0.137,0.179-0.199,0.457-0.199,0.836v1.243c0,0.376,0.07,0.657,0.206,0.834c0.186,0.243,0.442,0.364,0.779,0.364
		c0.336,0,0.599-0.127,0.778-0.385c0.078-0.114,0.128-0.243,0.15-0.385C139.762,12.245,139.771,12.102,139.771,11.895z"/>
	<polyline fill="#CA2128" points="159.227,16 159.227,0 175.227,0 175.227,16 	"/>
	<path fill="#FFFFFF" d="M167.227,2.213c-3.196,0-5.787,2.591-5.787,5.787c0,2.37,1.425,4.405,3.464,5.3
		c-0.016-0.405-0.003-0.89,0.1-1.329c0.112-0.47,0.745-3.154,0.745-3.154s-0.185-0.369-0.185-0.915c0-0.857,0.498-1.498,1.117-1.498
		c0.526,0,0.78,0.395,0.78,0.868c0,0.529-0.338,1.321-0.511,2.054c-0.145,0.614,0.308,1.114,0.912,1.114
		c1.097,0,1.835-1.408,1.835-3.077c0-1.268-0.854-2.217-2.408-2.217c-1.755,0-2.849,1.309-2.849,2.771
		c0,0.505,0.149,0.86,0.382,1.135c0.107,0.127,0.122,0.177,0.083,0.322c-0.027,0.107-0.091,0.363-0.118,0.464
		c-0.039,0.147-0.157,0.199-0.289,0.145c-0.809-0.33-1.185-1.215-1.185-2.211c0-1.644,1.386-3.615,4.136-3.615
		c2.209,0,3.664,1.599,3.664,3.315c0,2.27-1.263,3.966-3.123,3.966c-0.625,0-1.213-0.338-1.414-0.721c0,0-0.336,1.333-0.407,1.591
		c-0.123,0.446-0.363,0.892-0.583,1.24c0.52,0.153,1.07,0.237,1.64,0.237c3.196,0,5.787-2.591,5.787-5.787
		C173.013,4.804,170.422,2.213,167.227,2.213z"/>
	<polyline fill="#221F1F" points="143.259,15.952 143.259,15.968 143.274,15.968 143.259,15.968 143.259,15.984 	"/>
	<rect x="143.259" y="0.016" fill="#326699" width="15.952" height="15.952"/>
	<path fill="#FFFFFF" d="M147.33,2.739h7.809c0.742,0,1.348,0.607,1.348,1.349v7.809c0,0.742-0.607,1.348-1.348,1.348h-7.809
		c-0.742,0-1.349-0.606-1.349-1.348V4.088C145.981,3.346,146.589,2.739,147.33,2.739z M153.635,3.906
		c-0.261,0-0.473,0.213-0.473,0.474v1.132c0,0.26,0.213,0.473,0.473,0.473h1.187c0.26,0,0.473-0.213,0.473-0.473V4.38
		c0-0.26-0.213-0.474-0.473-0.474H153.635z M155.3,7.182h-0.924c0.088,0.286,0.135,0.588,0.135,0.902
		c0,1.747-1.463,3.164-3.266,3.164c-1.803,0-3.266-1.417-3.266-3.164c0-0.314,0.048-0.616,0.135-0.902h-0.964v4.438
		c0,0.23,0.188,0.417,0.417,0.417h7.316c0.23,0,0.417-0.187,0.417-0.417V7.182z M151.245,5.925c-1.165,0-2.11,0.915-2.11,2.045
		c0,1.129,0.945,2.044,2.11,2.044s2.11-0.916,2.11-2.044C153.355,6.84,152.41,5.925,151.245,5.925z"/>
	<rect x="111.25" fill="#41B2DC" width="16.001" height="16"/>
	<path fill="#FFFFFF" d="M119.822,9.569c-0.314,0-0.555-0.821-0.913-2.257c-0.371-1.485-0.369-4.158-1.914-3.854
		c-1.456,0.286-3.369,2.571-3.369,2.571l0.457,0.6c0,0,0.943-0.742,1.257-0.371s1.513,4.855,1.914,5.682
		c0.35,0.726,1.313,1.685,2.37,1c1.056-0.685,4.569-3.683,5.197-7.225c0.628-3.539-4.227-2.799-4.741,0.286
		c1.285-0.772,1.971,0.314,1.313,1.542C120.736,8.769,120.135,9.569,119.822,9.569z"/>
</g>
</svg>
